<svg xmlns="http://www.w3.org/2000/svg" version="1.1" xmlns:xlink="http://www.w3.org/1999/xlink" xmlns:svgjs="http://svgjs.com/svgjs" id="Pattern752SvgRootPreview" width="100%" height="100%"><defs><pattern x="0" y="0" width="1" height="1" patternUnits="userSpaceOnUse" id="Pattern752Layer1"><g id="PatternRootContent1"><g id="Pattern752Layer1background"><rect width="1" height="1" id="Pattern752Background1" class="fill_color_1" fill="#ffffff"></rect></g></g></pattern><pattern x="0" y="0" width="60" height="60" patternUnits="userSpaceOnUse" id="Pattern752Layer2"><g id="PatternRootContent2"><g id="Pattern752Layer2Element1"><use xlink:href="#Pattern752Element1" x="18" y="18" transform="translate(27, 27) scale(1) translate(-27, -27) rotate(0, 30, 30)"></use></g><g id="Pattern752Layer2Element2"><use xlink:href="#Pattern752Element2" x="-12" y="-12" transform="translate(-2.5, -2.5) scale(1) translate(2.5, 2.5) rotate(0, 0, 0)"></use><use xlink:href="#Pattern752Element2" x="48" y="-12" transform="translate(57.5, -2.5) scale(1) translate(-57.5, 2.5) rotate(0, 60, 0)"></use><use xlink:href="#Pattern752Element2" x="48" y="48" transform="translate(57.5, 57.5) scale(1) translate(-57.5, -57.5) rotate(0, 60, 60)"></use><use xlink:href="#Pattern752Element2" x="-12" y="48" transform="translate(-2.5, 57.5) scale(1) translate(2.5, -57.5) rotate(0, 0, 60)"></use></g></g></pattern><symbol id="Pattern752Element1"><path d="M12 3C14.21 3 16 4.79 16 7S14.21 11 12 11 8 9.21 8 7 9.79 3 12 3M16 13.54C16 14.6 15.72 17.07 13.81 19.83L13 15L13.94 13.12C13.32 13.05 12.67 13 12 13S10.68 13.05 10.06 13.12L11 15L10.19 19.83C8.28 17.07 8 14.6 8 13.54C5.61 14.24 4 15.5 4 17V21H20V17C20 15.5 18.4 14.24 16 13.54Z" class="fill_color_2" fill="#d1d1d1"></path></symbol><symbol id="Pattern752Element2"><path d="M12,15C7.58,15 4,16.79 4,19V21H20V19C20,16.79 16.42,15 12,15M8,9A4,4 0 0,0 12,13A4,4 0 0,0 16,9M11.5,2C11.2,2 11,2.21 11,2.5V5.5H10V3C10,3 7.75,3.86 7.75,6.75C7.75,6.75 7,6.89 7,8H17C16.95,6.89 16.25,6.75 16.25,6.75C16.25,3.86 14,3 14,3V5.5H13V2.5C13,2.21 12.81,2 12.5,2H11.5Z" class="fill_color_3" fill="#54433e"></path></symbol></defs><rect width="100%" height="100%" id="Pattern752RctLayer1" fill="url(#Pattern752Layer1)"></rect><rect width="100%" height="100%" id="Pattern752RctLayer2" fill="url(#Pattern752Layer2)"></rect></svg>